<svg height="430pt" viewBox="0 -3 430.20321 430" width="430pt" xmlns="http://www.w3.org/2000/svg"><path d="m249 269.902344c-27.140625-22.515625-61.335938-34.765625-96.601562-34.601563h-.296876c-41.101562.101563-79.402343 16.101563-107.703124 45.101563-27.199219 28-42.898438 65.699218-44.398438 107l246.300781-.5c-22.542969-36.042969-21.484375-82.039063 2.699219-117zm0 0"/><path d="m337.199219 237.402344c-51.363281 0-93 41.636718-93 93 0 51.363281 41.636719 93 93 93s93-41.636719 93-93c.207031-24.730469-9.523438-48.503906-27.011719-65.988282-17.484375-17.488281-41.257812-27.21875-65.988281-27.011718zm40.5 100h-33.5v33.5c0 3.867187-3.132813 7-7 7-3.863281 0-7-3.132813-7-7v-33.5h-33.5c-3.863281 0-7-3.132813-7-7 0-3.867188 3.136719-7 7-7h33.5v-33.5c0-3.867188 3.136719-7 7-7 3.867187 0 7 3.132812 7 7v33.5h33.5c3.867187 0 7 3.132812 7 7 0 3.867187-3.132813 7-7 7zm0 0"/><path d="m240.898438 88.800781c0 48.988281-39.710938 88.699219-88.699219 88.699219s-88.699219-39.710938-88.699219-88.699219 39.710938-88.699219 88.699219-88.699219 88.699219 39.710938 88.699219 88.699219zm0 0"/></svg>