<svg id="Layer_1" height="512" viewBox="0 0 75 75" width="512" xmlns="http://www.w3.org/2000/svg" data-name="Layer 1"><path d="m29.2 29.958a4.451 4.451 0 0 0 1.028-4.7l-3.287-8.843a4.521 4.521 0 0 0 -2.511-2.589 4.362 4.362 0 0 0 -2.531-.232l6.501 17.188z"/><path d="m41.958 49.011a3.14 3.14 0 0 1 -4.1.378 55.253 55.253 0 0 1 -12.111-12.13 3.133 3.133 0 0 1 .3-4.024l1.241-1.289-6.75-17.846a14.7 14.7 0 0 0 -6.4 7.186.867.867 0 0 0 -.029.1c-1.435 4.587-.32 10.308 3.306 16.979a48.135 48.135 0 0 0 8.214 11.015 47.629 47.629 0 0 0 11.015 8.212c4.79 2.6 9.085 3.908 12.828 3.908a13.726 13.726 0 0 0 4.15-.6.438.438 0 0 0 .1-.039 14.729 14.729 0 0 0 7.2-6.4l-17.772-6.691z"/><path d="m61.176 50.582a4.435 4.435 0 0 0 -2.589-2.511l-8.834-3.287a4.463 4.463 0 0 0 -4.712 1.027l-.795.825 17.162 6.457a4.371 4.371 0 0 0 -.232-2.511z"/><path d="m37.954 38.008a.725.725 0 0 0 .515-.213l12.85-12.851-.039 4.556a.728.728 0 0 0 .721.734h.006a.726.726 0 0 0 .727-.721l.055-6.25a.727.727 0 0 0 -.727-.734h-.007l-6.25.055a.727.727 0 0 0 .006 1.454h.007l4.391-.038-12.769 12.766a.728.728 0 0 0 .514 1.242z"/></svg>